<svg id="visual" viewBox="0 0 960 540" width="960" height="540" xmlns="http://www.w3.org/2000/svg" xmlns:xlink="http://www.w3.org/1999/xlink" version="1.1"><rect x="0" y="0" width="960" height="540" fill="#FFFFFF"></rect><defs><linearGradient id="grad1_0" x1="43.8%" y1="0%" x2="100%" y2="100%"><stop offset="14.444444444444446%" stop-color="#b79967" stop-opacity="1"></stop><stop offset="85.55555555555554%" stop-color="#b79967" stop-opacity="1"></stop></linearGradient></defs><defs><linearGradient id="grad1_1" x1="43.8%" y1="0%" x2="100%" y2="100%"><stop offset="14.444444444444446%" stop-color="#b79967" stop-opacity="1"></stop><stop offset="85.55555555555554%" stop-color="#ffffff" stop-opacity="1"></stop></linearGradient></defs><defs><linearGradient id="grad2_0" x1="0%" y1="0%" x2="56.3%" y2="100%"><stop offset="14.444444444444446%" stop-color="#b79967" stop-opacity="1"></stop><stop offset="85.55555555555554%" stop-color="#b79967" stop-opacity="1"></stop></linearGradient></defs><defs><linearGradient id="grad2_1" x1="0%" y1="0%" x2="56.3%" y2="100%"><stop offset="14.444444444444446%" stop-color="#ffffff" stop-opacity="1"></stop><stop offset="85.55555555555554%" stop-color="#b79967" stop-opacity="1"></stop></linearGradient></defs><g transform="translate(960, 0)"><path d="M0 476C-54.8 437.7 -109.5 399.3 -151.5 365.9C-193.5 332.4 -222.8 303.7 -278.6 278.6C-334.4 253.5 -416.8 231.8 -449 186C-481.2 140.1 -463.1 70.1 -445 0L0 0Z" fill="#ddcbb1"></path><path d="M0 238C-27.4 218.8 -54.8 199.7 -75.8 182.9C-96.8 166.2 -111.4 151.9 -139.3 139.3C-167.2 126.7 -208.4 115.9 -224.5 93C-240.6 70.1 -231.5 35 -222.5 0L0 0Z" fill="#b79967"></path></g><g transform="translate(0, 540)"><path d="M0 -480C43.7 -428.8 87.4 -377.6 150.4 -363.1C213.3 -348.5 295.5 -370.6 343.7 -343.7C391.8 -316.7 405.9 -240.7 423.1 -175.3C440.4 -109.8 460.7 -54.9 481 0L0 0Z" fill="#ddcbb1"></path><path d="M0 -240C21.9 -214.4 43.7 -188.8 75.2 -181.5C106.7 -174.3 147.8 -185.3 171.8 -171.8C195.9 -158.3 203 -120.4 211.6 -87.6C220.2 -54.9 230.3 -27.5 240.5 0L0 0Z" fill="#b79967"></path></g></svg>