<svg id="visual" viewBox="0 0 960 540" width="960" height="540" xmlns="http://www.w3.org/2000/svg" xmlns:xlink="http://www.w3.org/1999/xlink" version="1.1"><rect x="0" y="0" width="960" height="540" fill="#FFFFFF"></rect><defs><linearGradient id="grad1_0" x1="43.8%" y1="0%" x2="100%" y2="100%"><stop offset="14.444444444444446%" stop-color="#b79967" stop-opacity="1"></stop><stop offset="85.55555555555554%" stop-color="#b79967" stop-opacity="1"></stop></linearGradient></defs><defs><linearGradient id="grad1_1" x1="43.8%" y1="0%" x2="100%" y2="100%"><stop offset="14.444444444444446%" stop-color="#b79967" stop-opacity="1"></stop><stop offset="85.55555555555554%" stop-color="#ffffff" stop-opacity="1"></stop></linearGradient></defs><defs><linearGradient id="grad2_0" x1="0%" y1="0%" x2="56.3%" y2="100%"><stop offset="14.444444444444446%" stop-color="#b79967" stop-opacity="1"></stop><stop offset="85.55555555555554%" stop-color="#b79967" stop-opacity="1"></stop></linearGradient></defs><defs><linearGradient id="grad2_1" x1="0%" y1="0%" x2="56.3%" y2="100%"><stop offset="14.444444444444446%" stop-color="#ffffff" stop-opacity="1"></stop><stop offset="85.55555555555554%" stop-color="#b79967" stop-opacity="1"></stop></linearGradient></defs><g transform="translate(960, 0)"><path d="M0 413C-55 413.8 -110 414.6 -165.7 400C-221.4 385.4 -277.9 355.4 -312.5 312.5C-347.2 269.6 -360 213.8 -385.3 159.6C-410.5 105.3 -448.3 52.7 -486 0L0 0Z" fill="#ddcbb1"></path><path d="M0 206.5C-27.5 206.9 -55 207.3 -82.9 200C-110.7 192.7 -139 177.7 -156.3 156.3C-173.6 134.8 -180 106.9 -192.6 79.8C-205.3 52.7 -224.1 26.3 -243 0L0 0Z" fill="#b79967"></path></g><g transform="translate(0, 540)"><path d="M0 -447C64.7 -446.9 129.4 -446.9 172.6 -416.7C215.8 -386.5 237.5 -326.1 287.1 -287.1C336.6 -248 414 -230.3 449 -186C484 -141.7 476.5 -70.8 469 0L0 0Z" fill="#ddcbb1"></path><path d="M0 -223.5C32.3 -223.5 64.7 -223.4 86.3 -208.3C107.9 -193.2 118.8 -163.1 143.5 -143.5C168.3 -124 207 -115.1 224.5 -93C242 -70.8 238.2 -35.4 234.5 0L0 0Z" fill="#b79967"></path></g></svg>